<?xml version="1.0" encoding="UTF-8"?>
<svg id="Layer_2" data-name="Layer 2" xmlns="http://www.w3.org/2000/svg" viewBox="0 0 158.25 86.19">
  <defs>
    <style>
      .cls-1 {
        fill: none;
        stroke: #6a2812;
        stroke-miterlimit: 3.86;
        stroke-width: .68px;
      }

      .cls-1, .cls-2, .cls-3 {
        fill-rule: evenodd;
      }

      .cls-2 {
        fill: #231f20;
      }

      .cls-2, .cls-3 {
        stroke-width: 0px;
      }

      .cls-3 {
        fill: #ffd99c;
      }
    </style>
  </defs>
  <g id="Layer_4" data-name="Layer 4">
    <g>
      <g>
        <g>
          <path class="cls-3" d="m1.93,41.61c1.15,3.85,2.49,6.92,4.04,9.21,2.69,3.99,6.03,5.99,10.02,5.99,2.16,0,4.02-.87,5.59-2.6,1.59-1.73,2.38-4.14,2.38-7.24,0-2.79-.79-5.22-2.38-7.28-1.04-1.31-3.22-3.28-6.55-5.9l-5.79-4.56c-1.74-1.39-3.13-2.8-4.17-4.23-1.92-2.71-2.88-5.69-2.88-8.96,0-4.32,1.14-7.92,3.41-10.8C7.88,2.36,10.89.93,14.63.92c1.54,0,3.4.49,5.56,1.47,2.18.95,3.43,1.42,3.74,1.42.84,0,1.41-.25,1.72-.75.33-.5.59-1.21.76-2.13h1.39l1.49,18.25h-1.62c-1.1-5.5-2.88-9.33-5.33-11.51-2.43-2.18-4.83-3.26-7.21-3.26-1.85,0-3.47.7-4.86,2.09-1.37,1.37-2.05,3.28-2.05,5.74,0,2.2.53,4.09,1.59,5.65,1.06,1.59,2.7,3.25,4.93,4.98l5.95,4.65c3.73,2.9,6.35,5.57,7.87,7.99,1.5,2.46,2.25,5.36,2.25,8.71,0,4.49-1.35,8.25-4.04,11.26-2.67,3.02-6.09,4.52-10.25,4.52-2.1,0-4.29-.5-6.58-1.51-2.27-1-3.57-1.51-3.9-1.51-.79,0-1.34.31-1.62.92-.27.62-.44,1.27-.53,1.97h-1.49L.38,41.61h1.55Z"/>
          <path class="cls-1" d="m1.93,41.61c1.15,3.85,2.49,6.92,4.04,9.21,2.69,3.99,6.03,5.99,10.02,5.99,2.16,0,4.02-.87,5.59-2.6,1.59-1.73,2.38-4.14,2.38-7.24,0-2.79-.79-5.22-2.38-7.28-1.04-1.31-3.22-3.28-6.55-5.9l-5.79-4.56c-1.74-1.39-3.13-2.8-4.17-4.23-1.92-2.71-2.88-5.69-2.88-8.96,0-4.32,1.14-7.92,3.41-10.8C7.88,2.36,10.89.93,14.63.92c1.54,0,3.4.49,5.56,1.47,2.18.95,3.43,1.42,3.74,1.42.84,0,1.41-.25,1.72-.75.33-.5.59-1.21.76-2.13h1.39l1.49,18.25h-1.62c-1.1-5.5-2.88-9.33-5.33-11.51-2.43-2.18-4.83-3.26-7.21-3.26-1.85,0-3.47.7-4.86,2.09-1.37,1.37-2.05,3.28-2.05,5.74,0,2.2.53,4.09,1.59,5.65,1.06,1.59,2.7,3.25,4.93,4.98l5.95,4.65c3.73,2.9,6.35,5.57,7.87,7.99,1.5,2.46,2.25,5.36,2.25,8.71,0,4.49-1.35,8.25-4.04,11.26-2.67,3.02-6.09,4.52-10.25,4.52-2.1,0-4.29-.5-6.58-1.51-2.27-1-3.57-1.51-3.9-1.51-.79,0-1.34.31-1.62.92-.27.62-.44,1.27-.53,1.97h-1.49L.38,41.61h1.55Z"/>
        </g>
        <g>
          <path class="cls-3" d="m54.66,35.67c-2.54,1.06-4.63,2.23-6.29,3.52-3.17,2.48-4.76,5.3-4.76,8.46,0,2.54.66,4.41,1.99,5.61.86.78,1.82,1.17,2.88,1.17,1.45,0,2.85-.52,4.17-1.55,1.34-1.03,2.02-2.34,2.02-3.93v-13.27Zm-12.14,4.73c2.03-1.67,6.07-3.95,12.14-6.82v-3.56c0-2.85-.22-4.83-.66-5.94-.75-1.87-2.31-2.8-4.66-2.81-1.12,0-2.19.36-3.21,1.09-1.02.75-1.52,1.79-1.52,3.1,0,.34.05.91.17,1.72.11.78.16,1.28.16,1.5,0,1.56-.41,2.65-1.23,3.27-.46.37-1.02.54-1.65.54-.99,0-1.75-.4-2.28-1.21-.53-.84-.79-1.76-.79-2.76,0-1.95.95-3.99,2.84-6.11,1.92-2.15,4.72-3.22,8.4-3.22,4.28,0,7.18,1.76,8.7,5.27.82,1.93,1.22,4.73,1.22,8.41v16.79c0,1.62.09,2.74.26,3.35.29,1.09.88,1.63,1.79,1.63.51,0,.93-.1,1.26-.29.33-.2.9-.67,1.72-1.42v2.18c-.71,1.09-1.47,1.98-2.28,2.68-1.23,1.06-2.49,1.59-3.77,1.59-1.5,0-2.59-.62-3.27-1.84-.66-1.23-1.02-2.69-1.09-4.4-1.68,1.84-3.11,3.21-4.3,4.1-2.01,1.51-3.91,2.26-5.72,2.26-1.9,0-3.54-.84-4.93-2.51-1.39-1.7-2.08-3.85-2.08-6.45,0-4.05,1.6-7.42,4.8-10.13Z"/>
          <path class="cls-1" d="m54.66,35.67c-2.54,1.06-4.63,2.23-6.29,3.52-3.17,2.48-4.76,5.3-4.76,8.46,0,2.54.66,4.41,1.99,5.61.86.78,1.82,1.17,2.88,1.17,1.45,0,2.85-.52,4.17-1.55,1.34-1.03,2.02-2.34,2.02-3.93v-13.27Zm-12.14,4.73c2.03-1.67,6.07-3.95,12.14-6.82v-3.56c0-2.85-.22-4.83-.66-5.94-.75-1.87-2.31-2.8-4.66-2.81-1.12,0-2.19.36-3.21,1.09-1.02.75-1.52,1.79-1.52,3.1,0,.34.05.91.17,1.72.11.78.16,1.28.16,1.5,0,1.56-.41,2.65-1.23,3.27-.46.37-1.02.54-1.65.54-.99,0-1.75-.4-2.28-1.21-.53-.84-.79-1.76-.79-2.76,0-1.95.95-3.99,2.84-6.11,1.92-2.15,4.72-3.22,8.4-3.22,4.28,0,7.18,1.76,8.7,5.27.82,1.93,1.22,4.73,1.22,8.41v16.79c0,1.62.09,2.74.26,3.35.29,1.09.88,1.63,1.79,1.63.51,0,.93-.1,1.26-.29.33-.2.9-.67,1.72-1.42v2.18c-.71,1.09-1.47,1.98-2.28,2.68-1.23,1.06-2.49,1.59-3.77,1.59-1.5,0-2.59-.62-3.27-1.84-.66-1.23-1.02-2.69-1.09-4.4-1.68,1.84-3.11,3.21-4.3,4.1-2.01,1.51-3.91,2.26-5.72,2.26-1.9,0-3.54-.84-4.93-2.51-1.39-1.7-2.08-3.85-2.08-6.45,0-4.05,1.6-7.42,4.8-10.13Z"/>
        </g>
        <g>
          <path class="cls-3" d="m66.64,57.69c2.34-.14,3.87-.68,4.6-1.63.75-.98,1.12-3.01,1.12-6.11v-26.87h-5.66v-2.8h5.66c0-4.41.47-8.13,1.42-11.18,1.81-5.83,5.13-8.75,9.96-8.75,1.94,0,3.67.49,5.19,1.47,1.54.98,2.31,2.29,2.32,3.94,0,.92-.26,1.74-.79,2.47-.53.73-1.17,1.09-1.92,1.09-.64,0-1.19-.24-1.65-.71-.46-.5-1.01-1.37-1.66-2.6l-.56-1.09c-.31-.59-.67-1.07-1.09-1.47-.42-.42-1-.63-1.76-.63-1.68,0-2.81,1.05-3.41,3.14-.33,1.12-.5,2.58-.5,4.39v9.92h8.3v2.8h-8.24v26.87c0,3.15.33,5.18.99,6.07.68.87,2.45,1.42,5.29,1.67v1.17h-17.63v-1.17Z"/>
          <path class="cls-1" d="m66.64,57.69c2.34-.14,3.87-.68,4.6-1.63.75-.98,1.12-3.01,1.12-6.11v-26.87h-5.66v-2.8h5.66c0-4.41.47-8.13,1.42-11.18,1.81-5.83,5.13-8.75,9.96-8.75,1.94,0,3.67.49,5.19,1.47,1.54.98,2.31,2.29,2.32,3.94,0,.92-.26,1.74-.79,2.47-.53.73-1.17,1.09-1.92,1.09-.64,0-1.19-.24-1.65-.71-.46-.5-1.01-1.37-1.66-2.6l-.56-1.09c-.31-.59-.67-1.07-1.09-1.47-.42-.42-1-.63-1.76-.63-1.68,0-2.81,1.05-3.41,3.14-.33,1.12-.5,2.58-.5,4.39v9.92h8.3v2.8h-8.24v26.87c0,3.15.33,5.18.99,6.07.68.87,2.45,1.42,5.29,1.67v1.17h-17.63v-1.17Z"/>
        </g>
        <g>
          <path class="cls-3" d="m107.3,35.67c-2.54,1.06-4.63,2.23-6.29,3.52-3.18,2.48-4.76,5.3-4.76,8.46,0,2.54.66,4.41,1.98,5.61.86.78,1.82,1.17,2.88,1.17,1.46,0,2.85-.52,4.17-1.55,1.34-1.03,2.02-2.34,2.02-3.93v-13.27Zm-12.14,4.73c2.03-1.67,6.08-3.95,12.14-6.82v-3.56c0-2.85-.22-4.83-.66-5.94-.75-1.87-2.31-2.8-4.66-2.81-1.13,0-2.2.36-3.21,1.09-1.02.75-1.52,1.79-1.52,3.1,0,.34.05.91.16,1.72.11.78.16,1.28.16,1.5,0,1.56-.41,2.65-1.22,3.27-.46.37-1.02.54-1.65.54-.99,0-1.75-.4-2.28-1.21-.53-.84-.79-1.76-.79-2.76,0-1.95.95-3.99,2.85-6.11,1.92-2.15,4.72-3.22,8.4-3.22,4.28,0,7.18,1.76,8.7,5.27.82,1.93,1.22,4.73,1.23,8.41v16.79c0,1.62.09,2.74.26,3.35.29,1.09.88,1.63,1.79,1.63.51,0,.92-.1,1.26-.29.33-.2.9-.67,1.72-1.42v2.18c-.7,1.09-1.46,1.98-2.28,2.68-1.24,1.06-2.49,1.59-3.77,1.59-1.5,0-2.59-.62-3.28-1.84-.66-1.23-1.02-2.69-1.09-4.4-1.68,1.84-3.11,3.21-4.3,4.1-2.01,1.51-3.92,2.26-5.72,2.26-1.9,0-3.54-.84-4.93-2.51-1.39-1.7-2.09-3.85-2.09-6.45,0-4.05,1.6-7.42,4.8-10.13Z"/>
          <path class="cls-1" d="m107.3,35.67c-2.54,1.06-4.63,2.23-6.29,3.52-3.18,2.48-4.76,5.3-4.76,8.46,0,2.54.66,4.41,1.98,5.61.86.78,1.82,1.17,2.88,1.17,1.46,0,2.85-.52,4.17-1.55,1.34-1.03,2.02-2.34,2.02-3.93v-13.27Zm-12.14,4.73c2.03-1.67,6.08-3.95,12.14-6.82v-3.56c0-2.85-.22-4.83-.66-5.94-.75-1.87-2.31-2.8-4.66-2.81-1.13,0-2.2.36-3.21,1.09-1.02.75-1.52,1.79-1.52,3.1,0,.34.05.91.16,1.72.11.78.16,1.28.16,1.5,0,1.56-.41,2.65-1.22,3.27-.46.37-1.02.54-1.65.54-.99,0-1.75-.4-2.28-1.21-.53-.84-.79-1.76-.79-2.76,0-1.95.95-3.99,2.85-6.11,1.92-2.15,4.72-3.22,8.4-3.22,4.28,0,7.18,1.76,8.7,5.27.82,1.93,1.22,4.73,1.23,8.41v16.79c0,1.62.09,2.74.26,3.35.29,1.09.88,1.63,1.79,1.63.51,0,.92-.1,1.26-.29.33-.2.9-.67,1.72-1.42v2.18c-.7,1.09-1.46,1.98-2.28,2.68-1.24,1.06-2.49,1.59-3.77,1.59-1.5,0-2.59-.62-3.28-1.84-.66-1.23-1.02-2.69-1.09-4.4-1.68,1.84-3.11,3.21-4.3,4.1-2.01,1.51-3.92,2.26-5.72,2.26-1.9,0-3.54-.84-4.93-2.51-1.39-1.7-2.09-3.85-2.09-6.45,0-4.05,1.6-7.42,4.8-10.13Z"/>
        </g>
        <g>
          <path class="cls-3" d="m118.25,57.48c2.03-.22,3.37-.67,4.04-1.34.66-.7.99-2.16.99-4.4v-18.88c0-2.76-.21-4.73-.63-5.9-.4-1.2-1.14-1.8-2.22-1.8-.22,0-.52.04-.89.13-.35.06-.73.14-1.12.25v-1.38c1.26-.56,2.54-1.13,3.87-1.72,1.33-.59,2.24-1,2.75-1.26,1.1-.53,2.24-1.13,3.41-1.8.15,0,.24.07.27.21.04.14.07.43.07.88v6.86c1.41-2.48,2.77-4.42,4.07-5.82,1.32-1.39,2.69-2.09,4.1-2.09,1.12,0,2.04.43,2.74,1.3.71.84,1.06,1.9,1.06,3.18,0,1.14-.28,2.1-.83,2.89-.53.78-1.2,1.17-2.02,1.17s-1.69-.49-2.55-1.46c-.84-.98-1.5-1.46-1.99-1.46-.77,0-1.72.79-2.84,2.38-1.13,1.56-1.69,3.18-1.69,4.85v18.88c0,2.4.44,4.08,1.32,5.02.88.92,2.35,1.35,4.4,1.3v1.38h-16.31v-1.38Z"/>
          <path class="cls-1" d="m118.25,57.48c2.03-.22,3.37-.67,4.04-1.34.66-.7.99-2.16.99-4.4v-18.88c0-2.76-.21-4.73-.63-5.9-.4-1.2-1.14-1.8-2.22-1.8-.22,0-.52.04-.89.13-.35.06-.73.14-1.12.25v-1.38c1.26-.56,2.54-1.13,3.87-1.72,1.33-.59,2.24-1,2.75-1.26,1.1-.53,2.24-1.13,3.41-1.8.15,0,.24.07.27.21.04.14.07.43.07.88v6.86c1.41-2.48,2.77-4.42,4.07-5.82,1.32-1.39,2.69-2.09,4.1-2.09,1.12,0,2.04.43,2.74,1.3.71.84,1.06,1.9,1.06,3.18,0,1.14-.28,2.1-.83,2.89-.53.78-1.2,1.17-2.02,1.17s-1.69-.49-2.55-1.46c-.84-.98-1.5-1.46-1.99-1.46-.77,0-1.72.79-2.84,2.38-1.13,1.56-1.69,3.18-1.69,4.85v18.88c0,2.4.44,4.08,1.32,5.02.88.92,2.35,1.35,4.4,1.3v1.38h-16.31v-1.38Z"/>
        </g>
        <g>
          <path class="cls-3" d="m147.06,1.72c.66-.86,1.48-1.3,2.45-1.3s1.75.43,2.41,1.3c.68.84,1.03,1.87,1.03,3.1s-.34,2.23-1.03,3.1c-.66.84-1.47,1.25-2.41,1.25s-1.79-.42-2.45-1.25c-.66-.87-.99-1.9-.99-3.1s.33-2.23.99-3.1Zm-5.23,55.97c2.36-.28,3.85-.78,4.47-1.51.62-.75.93-2.76.93-6.03v-19.97c0-1.81-.1-3.07-.3-3.77-.33-1.14-1.02-1.71-2.08-1.72-.24,0-.49.03-.73.08-.22.05-.88.28-1.99.67v-1.3l1.42-.59c3.86-1.59,6.55-2.79,8.07-3.6.62-.33,1.01-.5,1.19-.5.04.2.06.41.06.63v30.06c0,3.18.3,5.18.89,5.99.62.81,2,1.32,4.13,1.55v1.17h-16.08v-1.17Z"/>
          <path class="cls-1" d="m147.06,1.72c.66-.86,1.48-1.3,2.45-1.3s1.75.43,2.41,1.3c.68.84,1.03,1.87,1.03,3.1s-.34,2.23-1.03,3.1c-.66.84-1.47,1.25-2.41,1.25s-1.79-.42-2.45-1.25c-.66-.87-.99-1.9-.99-3.1s.33-2.23.99-3.1Zm-5.23,55.97c2.36-.28,3.85-.78,4.47-1.51.62-.75.93-2.76.93-6.03v-19.97c0-1.81-.1-3.07-.3-3.77-.33-1.14-1.02-1.71-2.08-1.72-.24,0-.49.03-.73.08-.22.05-.88.28-1.99.67v-1.3l1.42-.59c3.86-1.59,6.55-2.79,8.07-3.6.62-.33,1.01-.5,1.19-.5.04.2.06.41.06.63v30.06c0,3.18.3,5.18.89,5.99.62.81,2,1.32,4.13,1.55v1.17h-16.08v-1.17Z"/>
        </g>
      </g>
      <g>
        <polygon class="cls-2" points="5.11 82.67 5.11 70.71 6.7 70.71 6.7 81.26 12.59 81.26 12.59 82.67 5.11 82.67"/>
        <path class="cls-2" d="m22.41,78.34c0-1.6.45-2.79,1.34-3.57.75-.64,1.65-.96,2.72-.96,1.19,0,2.17.39,2.92,1.18.75.78,1.13,1.86,1.13,3.23,0,1.11-.17,1.99-.51,2.63-.33.64-.82,1.13-1.46,1.49-.63.35-1.33.53-2.09.53-1.21,0-2.19-.39-2.94-1.16-.75-.78-1.12-1.9-1.12-3.36Zm1.51,0c0,1.11.24,1.94.73,2.5.48.55,1.09.82,1.83.82s1.34-.27,1.82-.83c.48-.56.73-1.4.73-2.54,0-1.07-.24-1.88-.73-2.43-.48-.55-1.09-.83-1.81-.83s-1.34.27-1.83.82c-.48.55-.73,1.38-.73,2.49Z"/>
        <path class="cls-2" d="m42.29,82.67h-1.36v-11.96h1.47v4.27c.62-.78,1.41-1.17,2.37-1.17.53,0,1.04.11,1.51.33.48.21.87.52,1.18.91.31.39.55.85.72,1.4.18.55.26,1.14.26,1.77,0,1.48-.37,2.63-1.1,3.44-.73.81-1.61,1.21-2.64,1.21s-1.82-.43-2.41-1.28v1.09Zm-.02-4.4c0,1.04.14,1.79.42,2.25.46.75,1.09,1.13,1.87,1.13.64,0,1.2-.27,1.67-.83.47-.56.7-1.39.7-2.5s-.23-1.97-.68-2.51c-.45-.54-.99-.81-1.62-.81s-1.2.28-1.66.84c-.47.56-.7,1.36-.7,2.42Z"/>
        <path class="cls-2" d="m60.26,82.67h-1.36v-11.96h1.47v4.27c.62-.78,1.41-1.17,2.38-1.17.53,0,1.04.11,1.51.33.48.21.87.52,1.17.91.31.39.55.85.73,1.4.17.55.26,1.14.26,1.77,0,1.48-.37,2.63-1.1,3.44-.73.81-1.62,1.21-2.65,1.21s-1.82-.43-2.41-1.28v1.09Zm-.02-4.4c0,1.04.14,1.79.42,2.25.46.75,1.09,1.13,1.88,1.13.64,0,1.2-.27,1.66-.83.47-.56.7-1.39.7-2.5s-.23-1.97-.68-2.51c-.45-.54-.99-.81-1.62-.81s-1.2.28-1.67.84c-.47.56-.7,1.36-.7,2.42Z"/>
        <path class="cls-2" d="m76.81,86.01l-.16-1.38c.32.09.6.13.84.13.33,0,.59-.06.78-.16.2-.11.35-.26.48-.46.09-.15.24-.51.45-1.1.03-.08.07-.2.13-.36l-3.29-8.68h1.58l1.8,5.02c.23.64.44,1.31.63,2.01.17-.67.37-1.33.6-1.97l1.85-5.05h1.47l-3.3,8.81c-.35.95-.63,1.61-.82,1.97-.26.48-.56.84-.9,1.06-.34.23-.74.34-1.21.34-.28,0-.6-.06-.95-.18Z"/>
        <path class="cls-2" d="m110.02,82.67v-11.96h4.49c.91,0,1.64.12,2.19.37.55.24.99.61,1.3,1.12.32.5.47,1.02.47,1.57,0,.51-.14.99-.42,1.44-.28.45-.7.82-1.26,1.1.72.21,1.28.57,1.67,1.09.39.51.59,1.11.59,1.81,0,.56-.12,1.08-.36,1.57-.23.48-.53.85-.87,1.11-.35.26-.79.46-1.31.6-.52.13-1.16.2-1.93.2h-4.56Zm1.58-6.94h2.59c.7,0,1.21-.04,1.51-.14.4-.12.7-.32.91-.59.21-.28.31-.62.31-1.05,0-.4-.1-.74-.29-1.04-.19-.3-.46-.51-.82-.62-.35-.12-.96-.17-1.82-.17h-2.39v3.61Zm0,5.53h2.98c.51,0,.87-.02,1.08-.06.36-.06.67-.17.91-.32.24-.15.45-.37.6-.66.16-.29.24-.63.24-1.01,0-.45-.12-.83-.34-1.16-.23-.33-.55-.56-.95-.69-.4-.14-.99-.2-1.75-.2h-2.76v4.11Z"/>
        <path class="cls-2" d="m135.37,81.61c-.54.46-1.07.79-1.58.98-.5.19-1.04.28-1.62.28-.95,0-1.68-.23-2.19-.69-.51-.47-.77-1.06-.77-1.79,0-.42.1-.81.29-1.16.19-.35.45-.63.76-.85.32-.21.67-.37,1.06-.48.29-.08.72-.15,1.3-.22,1.19-.14,2.06-.31,2.62-.5,0-.2,0-.33,0-.38,0-.6-.14-1.02-.41-1.27-.38-.33-.93-.5-1.67-.5-.69,0-1.2.12-1.54.37-.33.24-.57.66-.72,1.28l-1.44-.2c.13-.62.35-1.11.65-1.49.3-.38.73-.67,1.3-.87.57-.21,1.22-.31,1.97-.31s1.34.09,1.8.26c.46.17.8.39,1.02.66.22.26.37.59.46.99.05.25.07.7.07,1.36v1.96c0,1.37.03,2.23.09,2.6.06.36.19.7.37,1.03h-1.53c-.15-.3-.25-.66-.29-1.07Zm-.12-3.28c-.53.22-1.33.4-2.4.55-.6.09-1.03.19-1.28.3-.25.11-.44.27-.58.48-.13.21-.2.44-.2.69,0,.39.14.72.44.98.3.26.73.39,1.3.39s1.07-.12,1.51-.37c.44-.25.76-.59.97-1.02.16-.33.24-.82.24-1.47v-.54Z"/>
        <path class="cls-2" d="m147.67,82.67v-8.67h1.32v1.31c.34-.62.65-1.02.93-1.22.29-.2.6-.29.95-.29.5,0,1,.16,1.51.47l-.5,1.36c-.36-.21-.72-.32-1.08-.32-.32,0-.61.1-.87.3-.25.19-.44.45-.55.8-.16.52-.24,1.09-.24,1.72v4.54h-1.47Z"/>
      </g>
    </g>
  </g>
</svg>