<?xml version="1.0" encoding="UTF-8"?>
<svg id="Layer_2" data-name="Layer 2" xmlns="http://www.w3.org/2000/svg" viewBox="0 0 1438.19 737.22">
  <defs>
    <style>
      .cls-1 {
        stroke-width: 0px;
      }
    </style>
  </defs>
  <g id="Layer_1-2" data-name="Layer 1">
    <g>
      <path class="cls-1" d="m1211.42.1c9.23,1.25,18.59.88,27.85,2.05,13.77,1.42,28.21,2.81,40.23,10.32,11.31,6.5,19.85,17.07,25.04,28.94,5.54,12.76,8.11,26.72,8.23,40.6-17.14-.7-34.27-1.59-51.41-2.24-3.84-9.87-12.1-17.48-21.79-21.47-19.79-8.16-41.92-7.23-62.7-4.18-3.17.71-6.8.59-9.59,2.26.27,27.29.92,54.58,1.42,81.87,20.29,1.47,41.33.05,60.14-8.29,13.18-5.97,25.3-15.88,31.14-29.4,17.57-.08,35.12.91,52.7.86.55,19.72-6.57,39.72-20.09,54.18-10.41,11.57-24.09,19.66-38.27,25.76-17.68,7.28-36.59,11.53-55.64,12.9,2.44,7.26,6.8,13.69,10.66,20.25,19.59,30.41,46.85,55.12,76.11,76.03,6.38,4.52,12.91,8.85,19.6,12.91-4.67,12.3-1.62,25.82,1.92,38-23.4-.18-46.8.05-70.19-.12-29.24-39.16-58.27-78.48-87.95-117.31-.78-1.12-1.83-1.99-2.96-2.7-1.35,42.42-12.67,83.84-27.14,123.51-1.34,3.58-2.7,7.15-4.23,10.64-17.83-7.62-35.82-14.86-53.57-22.66-1.19-.51-2.43-.8-3.7-.87.88-.17,1.78-.35,2.69-.53,10.05-19.53,16.91-40.52,22.08-61.82,10.67-44.93,15.07-91.08,17.08-137.13,1.57-38.9,1.34-77.88-.83-116.76,18.77-6.73,38.36-10.95,58.16-13.15,10.97-1.45,22.04-1.33,33.06-2.08,7.31-.19,14.63-.68,21.95-.37Z"/>
      <path class="cls-1" d="m104,9c.02-.23.08-.7.11-.94,6.68.18,13.69-1.12,20.16.82,11.24,1.3,22.4,3.43,33.17,6.96,9.14,2.46,16.59,9.11,26.09,10.56,6.44,1.68,13.62-.19,17.94-5.37,3.3,1.49,6.6,2.96,9.94,4.36-8.32,17.75-16.51,35.79-20.73,55.04-1.2,6.15-2.29,12.55-.91,18.77-2.75.07-5.51.04-8.24-.21-6.02-14.43-18.75-25.13-32.57-31.84-15.53-7.35-33.48-11.49-50.49-7.23-15.65,3.66-29.52,15.03-35.2,30.2-4.4,10.99-3.54,23.12-1.77,34.57,1.39,7.46,5.14,14.84,11.76,18.92,9.07,5.68,20.05,6.95,30.49,7.66,12.87,1.19,25.86-.45,38.69,1.35,25.79,3.3,51.13,13.68,70.21,31.62,12.2,11.36,21.35,26.07,25.55,42.25,1.34,4.97,2.04,10.07,2.89,15.14,1.7,5.34.82,11.17.57,16.69-1.23,2.1-1.1,4.64-1.5,6.97-2.46,20.24-10.34,40.27-24.7,55.03-10.47,10.6-23.76,18.33-38.1,22.34-15.55,4.25-31.86,4.72-47.89,4.21-14.36-.88-28.74-2.79-42.53-7.05-18.9-5.36-35.48-17.86-55.41-19.7-7.2-.63-13.58,3.29-19.24,7.22-3.42,2.73-6.82-1.78-10.02-2.93,1.21-3.98,3.05-7.73,4.65-11.56,10.47-24.7,21.11-49.32,31.49-74.05,2.53,1.03,5.04,2.12,7.52,3.27,3.72,13.98,13.87,25.56,26.18,32.83,11.91,7.21,25.65,10.76,39.37,12.46,16.42,2.05,33.72,2.84,49.49-3.05,10.01-3.65,18.46-11.79,21.5-22.13,2.55-8.92,2.74-19.2-2.24-27.35-5.43-9.36-15.17-15.19-25.01-19.02-11.09-4.22-22.95-6.27-34.78-6.59-14,1.14-28.22,1.51-42.07-1.23-14.77-2.88-28.85-8.89-41.55-16.9-17.17-11.11-28.73-29.51-33.52-49.19-1.6-5.71-1.94-11.66-3.04-17.46-1.28-15.63,2.33-31.21,7.17-45.98,4-12.35,12.17-22.75,21.09-31.95,10.29-10.32,21.94-19.41,34.88-26.18,12.5-6.67,26.53-10.18,40.6-11.33Z"/>
      <path class="cls-1" d="m1344.79,11.24c25.9-.69,51.75-2.26,77.64-3.35,1.16,1.53,2.35,3.05,3.57,4.56-8.07,44.52-10.01,89.85-9.07,135.01-.23,10.71,1.05,21.34,1.12,32.03.64,7.32,1.35,14.66.96,22.02.19-1.44.4-2.87.65-4.3.06,10.49,1.54,20.9,2.42,31.33,3.38,32.48,8.03,64.83,14.31,96.87.4,1.86.54,3.89,1.8,5.44-6.85,2.91-14.18,4.47-21.24,6.77-11.25,3.49-22.69,6.4-33.8,10.29-6.28-21.01-10.21-42.64-13.86-64.25-6.02-37.22-10.23-74.71-13.78-112.25-.74-8.88-2.1-17.75-1.4-26.67-.58,1.21-1.09,2.45-1.65,3.65.74-2.24.6-4.61.46-6.92-2.9-33.31-4.92-66.67-6.89-100.02-.06-10.09-1.46-20.1-1.24-30.21Z"/>
      <path class="cls-1" d="m778.27,18.49c8.3-1.75,16.79-2.91,24.78-5.89.05.89.14,2.66.19,3.55l-1.15-.22c-4.55,26.12-7.95,52.43-12.27,78.58-8.68-2.7-17.27-5.79-25.37-9.94-8.4-4.28-18.24-2.61-26.98-.41-34.53,9.56-71.15,6.69-105.79-.7,2.1,14.35,4.38,28.69,6.78,43,1.84,10.24,2.9,20.77,6.8,30.51,1.36,2.98,2.9,6.5,6.28,7.62,10.04,4.02,21.25,1.97,31.06-1.7,14.81-5.7,27.94-15.04,39.85-25.41,1.19.25,2.39.51,3.59.76-3.27,8.68-3.48,18.06-3.32,27.22-.13,11.78,1.48,23.49,3.15,35.13.17,2.03-1.42,3.69-2.16,5.48-9.11-2.95-18.21-5.94-27.35-8.76-12.17-2.18-25.1-2.04-36.8,2.27-10.18,3.7-18.43,12.39-21.16,22.92-6.76,37.01-14.74,73.83-21.71,110.81-7.75-.02-15.49.12-23.24-.07-.76-1.17-1.81-2.1-3.1-2.6-9.93-4.63-19.7-9.55-29.66-14.1,11.69-39.72,19.44-80.69,21.75-122.06,2.23-42.15-.84-84.94-12.57-125.62-2.5-8.61-5.58-17.06-9.21-25.26,6.07-6.54,11.98-13.23,17.79-20.01,12.75,1.39,25.47,3.1,38.28,4.01,53.93,3.87,108.37.77,161.54-9.11Z"/>
      <path class="cls-1" d="m362.39,22.96c19.66-.96,39.31-1.92,58.98-2.52,4.77.08,9.95-1.37,14.47.56,3.5,10.22,5.53,20.93,8.26,31.39,5.86,24.52,11.69,49.05,17.41,73.61-12.01,1.57-24.11,2.43-36.14,3.79-5.89.35-11.73,1.58-17.65,1.45-1.81-11.15-3.16-22.5-6.69-33.29-.75-2.41-2.1-4.57-3.56-6.6-2,2.2-3.65,4.7-4.84,7.43-4.95,10.86-7.8,22.51-10.86,34.01-17.44.18-34.87,1.04-52.31,1.29,5.35-32.95,11.43-65.78,16.98-98.7.64-4.19,1.77-9.09,5.81-11.29,3.21-1.29,6.76-.87,10.14-1.13Z"/>
      <path class="cls-1" d="m848.92,23.31c17.15-.86,34.31-1.67,51.47-2.38,9.78-.06,19.67-1.84,29.39-.04,9.19,34.87,17.1,70.06,25.45,105.14-17.99,1.93-36,3.97-54.04,5.29-.8-8.02-2.28-15.96-3.91-23.85-1.26-5.55-2.48-11.33-5.89-16.02-3.07,2.49-4.65,6.21-6.19,9.73-4.21,10.18-7,20.87-9.57,31.56-17.57.3-35.13,1.03-52.69,1.36,5.92-33.84,11.76-67.7,17.75-101.53.67-4.25,3.44-9.06,8.23-9.26Z"/>
      <path class="cls-1" d="m903.79,146.06c15.85-2.29,31.68-5.03,47.68-6.02,2.93.17,7.49-1.16,8.3,2.88,8.59,22.72,16.25,45.79,25.23,68.37,13.93,35.84,29.04,71.4,48.57,104.59.58.14,1.73.42,2.31.56-16.33,4.77-32.53,10.03-48.74,15.18-.17.49-.52,1.45-.69,1.93-3.44-5.44-8-10.11-11.62-15.44-14.91-20.29-28.69-41.58-39.24-64.5-4.78-10.66-8.94-21.68-11.16-33.18-.53-2.64-3.98-2.09-5.97-2.25-15.97.88-31.98.38-47.96.64-3.56.03-6.72,2.6-8.22,5.71-14.19,33.35-29.45,66.59-50.27,96.41-2.68,4.24-6.54,7.67-8.69,12.23-2.98.19-5.96.21-8.93.08-1.95-3.08-5.61-4.27-8.47-6.28-11.73-7.43-23.8-14.38-35.28-22.17,11.82-18.64,22.18-38.18,32.33-57.76,15.55-31.04,30.18-62.92,38.18-96.84,17-.47,34.12-1.74,51.05.5-.09,10.11.84,20.19,1.01,30.3,12.4-.29,24.77-1.05,37.17-1.04-2.6-7.39-4.87-14.93-6.27-22.65-.45-3.72-1.31-7.54-.32-11.25Z"/>
      <path class="cls-1" d="m445.48,141.12c6.27-.57,12.59-1.63,18.9-.86,1.74,1.7,2.29,4.18,3.18,6.37,14.85,41.57,29.8,83.19,48.41,123.26,7.33,16.04,15.47,31.71,24.47,46.88-16.08,5.22-32.32,9.98-48.36,15.35-10.64-12.94-20.32-26.68-29.35-40.79-10.17-15.96-19.34-32.66-26.09-50.38-2.61-7.07-4.9-14.31-5.99-21.79-2.02-.62-4.1-1.11-6.22-.98-16,.96-32.04.32-48.05.66-4.23.33-7.37,3.98-8.76,7.75-8.13,19.72-17.11,39.1-27.15,57.93-9.73,17.86-20.01,35.72-33.74,50.86-.06.77-.1,1.54-.14,2.31-.29-2.55-2.78-3.49-4.65-4.73-14.22-8.78-28.44-17.56-42.61-26.43-1.37-.85-2.82-1.56-4.28-2.21.63-.04,1.91-.12,2.55-.16,22.18-37.21,42.58-75.67,58.21-116.13,4.49-12.22,8.84-24.59,11.3-37.41,9.36-1.41,18.9-.62,28.34-1.29,7.75.54,15.66-.17,23.29,1.58.14,10.03-.12,20.11,1.03,30.08,12.25-.29,24.49-1.02,36.76-1.05-3.24-10.99-7.5-22.14-6.61-33.79,11.83-1.83,23.66-3.72,35.56-5.03Z"/>
      <path class="cls-1" d="m412.41,408.04c22.35-4.72,45.6-6.57,68.21-2.56,16.18,2.9,32.27,9.04,44.49,20.32,13.72,12.12,21.9,29.7,24.03,47.74,1.61,10.76.42,21.61-.34,32.38-13.78.1-27.56.05-41.35.01-1.6.06-3.09-.53-4.53-1.12-.55-10.14-1.35-20.86-7.2-29.54-4.34-6.55-11.02-11.32-18.45-13.77-12.81-4.5-26.15-8.11-39.76-8.85.65-.13,1.3-.27,1.95-.39-8.35-.38-16.66-1.6-25.04-1.21-2.23.38-3.79-1.39-5.42-2.54-.75-5.98-1-12-1.61-17.99-.49-3.48,1.34-6.68,1.58-10.08-.22-3.4-1.69-6.58-1.84-9.98,1.17-1.77,3.42-1.93,5.28-2.42Z"/>
      <path class="cls-1" d="m1003.46,404.45c16.08-1.28,32.29.25,47.97,3.92,17.94,4.19,35.2,12.71,48.05,26.11,13.6,14.05,21.31,32.86,24.44,51.97,1.02,5.18,1.1,10.47,1.96,15.68-18.59.21-37.18.05-55.77.08-4.85-17.23-16.84-32.47-32.92-40.51-11.59-6.11-24.8-8.29-37.77-8.6-8.42.01-16.72,1.5-25.08,2.13-2.97-15.36-6.57-30.6-9.69-45.93,12.76-2.75,25.74-4.63,38.81-4.85Z"/>
      <path class="cls-1" d="m684.47,405.18c4.35.19,8.65-.91,13.01-.58,2.98.14,5.74,1.4,8.49,2.47-.58,63.82-6.21,127.85-20.78,190.1-6.95,29.68-16.03,58.93-28.24,86.88-6.43,14.17-13.23,28.29-22.32,40.98-7.6-.54-14.73-3.51-21.78-6.16-13.67-5.5-27.05-11.72-40.22-18.3,21.25-24.12,38.92-51.34,52.27-80.59,17.75-38.48,28.86-79.78,35.32-121.59,4.66-30.64,6.77-61.67,5.81-92.67,6.11-.78,12.29-.78,18.44-.54Z"/>
      <path class="cls-1" d="m714.26,407.26c6.26-1.8,12.82-1.6,19.27-1.57,7.58.09,15.16.2,22.74-.04,1.6,32.38,5.66,64.66,12.33,96.4,7.01,33.54,16.91,66.65,31.62,97.66,14.29,29.79,33.47,58.09,60.08,78.19-1.82,10.62-4.22,21.14-6.3,31.72-1.53,6.94-2.59,13.99-4.55,20.83-.07-.48-.21-1.43-.28-1.91-17.82-10.04-33.42-23.59-47.24-38.58-20.88-22.83-36.76-50.05-47.22-79.13-15.01,2.2-30.1,3.73-45.2,5-4.31.18-8.63.12-12.93-.07.75-11.32,3.54-22.41,4.64-33.69,14.58-4.39,29.43-7.94,44.15-11.86-1.73-16.78-5.42-33.3-9.18-49.72-5.32-21.98-12.1-43.73-21.89-64.17-.81-1.51-.72-3.24-.7-4.88.31-14.73.58-29.45.66-44.18Z"/>
      <path class="cls-1" d="m368.04,410.4c2.73-.94,5.61-.36,8.38.11,5.51.89,11.09,1.36,16.57,2.45,8.33,73.67,5.81,148.5-7.18,221.5-4.44,24.39-9.82,48.64-17.1,72.34-.97,5.37-4.94,9.18-8.18,13.27-18.67-1.72-37.39-3.04-56.05-4.71-2.27.21-1.4-2.57-1.6-3.87,0-4.13.64-8.2,1.18-12.28-.95-.57-1.9-1.13-2.85-1.67,2.14-.46,2.1-2.79,2.62-4.48,1-4.23,1.83-8.51,3.21-12.64,9.61-.41,16.92-8,21.63-15.73,8.85-14.87,12.62-32.07,15.86-48.88,7.32-42.71,8.12-86.16,8.78-129.38.65-9.64.28-19.44-1.68-28.92-1.5-6.79-4.64-14.64-12.01-16.71-3.2-4.26-.79-9.29,0-13.91.96-4.22,1.65-8.5,2.69-12.7.23-.22.7-.66.94-.89,8.24-1.05,16.63-1.18,24.78-2.9Z"/>
      <path class="cls-1" d="m904.48,414.87c15.34-1.96,30.82-2.85,46.18-4.71,7.29,24.06,12.88,48.64,17,73.44,1.87,12.52,3.96,25.04,4.64,37.7.1-.61.21-1.21.33-1.81.87,15.99,2.37,31.96,2.08,47.99-.45,26.65-3.12,53.46-10.55,79.15-7.84,27.16-21.18,53.28-41.55,73.18-18.05-.08-36.09-.01-54.13-.03.35-.95.98-1.69,1.95-2.05,9.78-18.08,16.53-37.63,22.63-57.21,23.42-79.48,25.26-164.27,11.42-245.65Z"/>
      <path class="cls-1" d="m474.28,546.38c12.22-5.85,21.93-16.19,27.79-28.33,15.44.09,30.87,0,46.31.05-.54,17.07-7.2,33.95-18.67,46.62-4.75,5.5-10.73,9.66-16.55,13.9,13.56,1.92,26.62,9.67,33.36,21.82,7.39,13.07,7.9,28.86,5.22,43.33-1.29.45-2.57,1.14-3.96.84-14.04-1.54-28.12-2.81-42.15-4.41.78-11.59-2.11-24.71-11.86-32.03-8.02-6.27-18.56-6.53-28.19-8.01-18.96-2.18-37.99-4.53-57.1-4.01.24-2.85.44-5.72.98-8.53,2.82-10.95,3.12-22.51,1.58-33.68.71-.7,1.43-1.4,2.16-2.09,20.22,4.04,42.23,3.65,61.08-5.47Z"/>
      <path class="cls-1" d="m1024.68,563.1c21.07-6.37,35.89-24.95,44.55-44.39,18.89.1,37.78-.1,56.66.1,1.05,16.44-5.95,32.35-16.23,44.84-11.06,13.39-24.87,24.43-40.01,32.86,10.82,13.31,18.81,28.61,26.82,43.7,10.87,20.89,20.84,42.24,30.17,63.87,2.71,6.46,5.5,12.91,7.65,19.59.3,1.06.84,2.06,1.6,2.89.13,1.76.21,3.53.26,5.31-1.71,1.62-3.37,3.32-4.61,5.33-2.2.05-4.38-.02-6.55-.16.02-.41.07-1.22.09-1.62-12.99-2.96-25.83-6.52-38.73-9.81-10.61-33-30.08-62.98-55.45-86.54-13.82-12.75-29.19-23.98-46.1-32.27,0-15.5-.02-30.99.01-46.48,12.68,4.5,26.75,6.94,39.87,2.78Z"/>
      <path class="cls-1" d="m.06,538.02c84.35-.22,168.71-.02,253.07-.1.17,10.08.04,20.16.07,30.25-57.92.06-115.84.01-173.76.03-26.48-.09-52.96.17-79.44-.13.08-10.02-.02-20.04.06-30.05Z"/>
      <path class="cls-1" d="m1184.77,537.92c84.35.07,168.71-.11,253.07.1.08,10.01-.02,20.03.06,30.04-84.4.29-168.8.09-253.2.11.02-10.09-.1-20.17.07-30.25Z"/>
      <path class="cls-1" d="m503,652.88c15.64,1.73,31.41,2.22,47.05,3.97-4.57,19.31-12.16,38.62-25.97,53.26-8.09,8.83-18.74,15.41-30.47,18.06-8.26,1.99-16.79,1.64-25.22,1.66-17.33.16-34.65-.46-51.96-1.29-10.26-1.07-20.95-.93-30.67-4.78,1.29-14.44,4.26-28.65,6.56-42.95,21.98,6.74,45.11,11.02,68.16,8.93,10.17-1.21,20.51-4.03,28.71-10.42,4.08-3.05,7.13-7.23,9.61-11.64,2.52-4.56,2.86-9.86,4.2-14.8Z"/>
    </g>
  </g>
</svg>